<svg xmlns="http://www.w3.org/2000/svg" xmlns:xlink="http://www.w3.org/1999/xlink" preserveAspectRatio="xMidYMid meet" width="400" height="300" viewBox="0 0 400 300" style="width:100%;height:100%"><defs><animate repeatCount="indefinite" dur="0.4833333s" begin="0s" xlink:href="#_R_G_L_5_G_M" fill="freeze" attributeName="opacity" from="1" to="0" keyTimes="0;0.1724138;0.1724138;1" values="1;1;0;0" keySplines="0 0 0 0;0 0 0 0;0 0 0 0" calcMode="spline"/><animate repeatCount="indefinite" dur="0.4833333s" begin="0s" xlink:href="#_R_G_L_4_G_M" fill="freeze" attributeName="opacity" from="0" to="0" keyTimes="0;0.1724138;0.1724172;0.3448276;0.3448276;1" values="0;0;1;1;0;0" keySplines="0 0 0 0;0 0 0 0;0 0 0 0;0 0 0 0;0 0 0 0" calcMode="spline"/><animate repeatCount="indefinite" dur="0.4833333s" begin="0s" xlink:href="#_R_G_L_3_G_M" fill="freeze" attributeName="opacity" from="0" to="0" keyTimes="0;0.3448276;0.344831;0.5172414;0.5172414;1" values="0;0;1;1;0;0" keySplines="0 0 0 0;0 0 0 0;0 0 0 0;0 0 0 0;0 0 0 0" calcMode="spline"/><animate repeatCount="indefinite" dur="0.4833333s" begin="0s" xlink:href="#_R_G_L_2_G_M" fill="freeze" attributeName="opacity" from="0" to="0" keyTimes="0;0.5172414;0.5172448;0.6896552;0.6896552;1" values="0;0;1;1;0;0" keySplines="0 0 0 0;0 0 0 0;0 0 0 0;0 0 0 0;0 0 0 0" calcMode="spline"/><animate repeatCount="indefinite" dur="0.4833333s" begin="0s" xlink:href="#_R_G_L_1_G_M" fill="freeze" attributeName="opacity" from="0" to="0" keyTimes="0;0.6896552;0.6896586;0.862069;0.862069;1" values="0;0;1;1;0;0" keySplines="0 0 0 0;0 0 0 0;0 0 0 0;0 0 0 0;0 0 0 0" calcMode="spline"/><animate repeatCount="indefinite" dur="0.4833333s" begin="0s" xlink:href="#_R_G_L_0_G_M" fill="freeze" attributeName="opacity" from="0" to="1" keyTimes="0;0.862069;0.8620724;1" values="0;0;1;1" keySplines="0 0 0 0;0 0 0 0;0 0 0 0" calcMode="spline"/><animate attributeType="XML" attributeName="opacity" dur="0s" from="0" to="1" xlink:href="#time_group"/></defs><g id="_R_G"><g id="_R_G_L_5_G_M"><g id="_R_G_L_5_G" transform=" translate(200, 150) translate(-0.51, 58.113)"><path id="_R_G_L_5_G_D_0_P_0" fill="#ebebeb" fill-opacity="1" fill-rule="nonzero" d=" M72.56 -33.39 C70.46,-25.46 67.18,-19.39 62.7,-15.17 C58.23,-10.95 54.04,-8.84 50.13,-8.84 C48.03,-8.84 46.33,-9.69 45.03,-11.38 C43.73,-13.08 43.08,-15.86 43.08,-19.71 C43.08,-26.96 44.7,-34.22 47.96,-41.5 C51.22,-48.78 54.74,-53.82 58.54,-56.63 C62.33,-59.43 66.78,-60.83 71.88,-60.83 C73.97,-60.83 76.55,-60.52 79.61,-59.9 C79.61,-59.9 72.56,-33.39 72.56,-33.39z  M88.1 -69.58 C86.24,-69.81 84.39,-69.92 82.58,-69.92 C75.39,-69.92 69.5,-68.85 64.91,-66.69 C58.96,-63.86 53.3,-59.44 47.92,-53.44 C42.54,-47.44 38.24,-40.75 35.05,-33.39 C31.85,-26.03 30.25,-19.34 30.25,-13.34 C30.25,-8.3 31.44,-4.22 33.81,-1.1 C35.57,1.22 38.09,2.38 41.38,2.38 C44.83,2.38 48.63,1.08 52.76,-1.53 C59.5,-5.72 65.31,-10.73 70.18,-16.57 C70.18,-16.57 66.78,-5.01 66.78,-5.01 C66.33,-3.54 66.1,-2.38 66.1,-1.53 C66.1,-0.22 66.47,0.76 67.2,1.44 C67.94,2.12 69.04,2.46 70.52,2.46 C72.56,2.46 74.65,2.07 76.81,1.27 C80.09,0.08 83.55,-1.76 87.17,-4.25 C88.98,-5.49 93.12,-9.06 99.57,-14.95 C99.57,-14.95 96.86,-18.27 96.86,-18.27 C93.63,-15.15 90.26,-12.54 86.75,-10.45 C84.76,-9.26 83.32,-8.67 82.41,-8.67 C81,-8.67 80.29,-9.54 80.29,-11.3 C80.29,-13.05 80.91,-16.96 82.16,-23.02 C84.42,-34.18 86.83,-44.04 89.38,-52.59 C89.38,-52.59 95.75,-74.09 95.75,-74.09 C95.75,-74.09 90.14,-72.9 90.14,-72.9 C90.14,-72.9 88.1,-69.58 88.1,-69.58z "/><path id="_R_G_L_5_G_D_1_P_0" fill="#ebebeb" fill-opacity="1" fill-rule="nonzero" d=" M-19.02 -36.7 C-27.73,-36.7 -34.44,-36.79 -39.13,-36.96 C-39.13,-36.96 -17.3,-69.31 -17.3,-69.31 C-15.61,-71.8 -11.17,-77.81 -3.99,-87.34 C-6.71,-76.75 -9.43,-59.95 -12.15,-36.96 C-14.58,-36.79 -16.87,-36.7 -19.02,-36.7z  M7.99 -2.97 C4.64,-2.97 0.88,-3.51 -3.31,-4.59 C-3.31,-4.59 0.52,-39.76 0.52,-39.76 C0.52,-39.76 7.16,-88.87 7.16,-88.87 C7.89,-94.08 9.11,-100.17 10.82,-107.14 C8.38,-104.98 5.82,-103.54 3.16,-102.8 C1.46,-102.29 -2.74,-101.75 -9.43,-101.19 C-17.13,-100.62 -22.51,-99.97 -25.57,-99.23 C-31.52,-97.87 -36.48,-95.91 -40.44,-93.33 C-44.41,-90.75 -47.45,-87.55 -49.57,-83.73 C-51.7,-79.91 -52.76,-75.95 -52.76,-71.88 C-52.76,-68.99 -52.18,-66.82 -51.02,-65.38 C-49.86,-63.93 -48.32,-63.21 -46.39,-63.21 C-45.03,-63.21 -43.87,-63.69 -42.9,-64.65 C-41.94,-65.62 -41.46,-66.72 -41.46,-67.97 C-41.46,-68.93 -41.86,-70.46 -42.65,-72.56 C-43.39,-74.43 -43.75,-75.87 -43.75,-76.89 C-43.75,-80 -42.57,-83.06 -40.19,-86.06 C-37.82,-89.07 -34.25,-91.33 -29.5,-92.86 C-26.05,-93.99 -17.34,-95.18 -3.36,-96.43 C-13.61,-84.88 -27,-66.41 -43.52,-41.04 C-58.13,-18.61 -69.16,-3.88 -76.64,3.14 C-81.22,7.45 -85.41,9.6 -89.21,9.6 C-90.34,9.6 -92.61,9.2 -96.01,8.41 C-97.36,8.13 -98.44,7.99 -99.23,7.99 C-100.59,7.99 -101.73,8.47 -102.63,9.43 C-103.54,10.39 -103.99,11.61 -103.99,13.08 C-103.99,15.01 -103.21,16.58 -101.66,17.8 C-100.1,19.02 -97.73,19.63 -94.56,19.63 C-88.5,19.63 -82.11,16.81 -75.4,11.17 C-68.69,5.54 -58.12,-8.27 -43.7,-30.25 C-29.79,-30.59 -19.53,-30.73 -12.91,-30.67 C-13.88,-22.23 -14.78,-16.28 -15.63,-12.83 C-16.82,-7.96 -18.3,-3.31 -20.05,1.1 C-15.12,0.37 -11.47,0 -9.09,0 C-7.68,0 -4.3,0.28 1.02,0.85 C4.13,1.19 6.8,1.36 9.01,1.36 C10.54,1.36 12.32,1.27 14.36,1.1 C14.36,1.1 15.21,-3.74 15.21,-3.74 C12.6,-3.23 10.2,-2.97 7.99,-2.97z "/></g></g><g id="_R_G_L_4_G_M"><g id="_R_G_L_4_G" transform=" translate(200, 150) translate(-0.51, 58.113)"><path id="_R_G_L_4_G_D_0_P_0" fill="#ebebeb" fill-opacity="1" fill-rule="nonzero" d=" M39.85 -76.08 C42.65,-76.9 45.99,-77.61 49.88,-78.21 C53.76,-78.8 57.54,-79.1 61.22,-79.1 C65.19,-79.1 68.63,-78.7 71.54,-77.91 C74.46,-77.12 76.83,-75.73 78.64,-73.75 C80.45,-71.76 81.36,-69.38 81.36,-66.61 C81.36,-65.47 81.16,-64.34 80.77,-63.21 C80.37,-62.08 79.75,-60.96 78.9,-59.85 C78.05,-58.75 77.11,-57.82 76.09,-57.05 C75.07,-56.29 73.88,-55.62 72.52,-55.05 C71.16,-54.49 69.6,-53.91 67.85,-53.31 C66.09,-52.72 63.97,-52.14 61.48,-51.57 C53.72,-49.7 48.08,-48.21 44.57,-47.11 C41.05,-46.01 37.98,-44.89 35.35,-43.75 C32.71,-42.62 30.19,-41.18 27.78,-39.42 C25.38,-37.67 23.52,-35.91 22.22,-34.15 C20.91,-32.4 19.88,-30.44 19.12,-28.29 C18.35,-26.14 17.97,-23.79 17.97,-21.24 C17.97,-16.88 19.05,-12.84 21.2,-9.13 C23.35,-5.42 26.61,-2.66 30.97,-0.85 C35.33,0.96 41.39,1.87 49.15,1.87 C51.47,1.87 53.94,1.77 56.54,1.57 C59.15,1.37 62.52,0.88 66.65,0.09 C67.67,-4.46 68.58,-7.84 69.37,-10.02 C65.01,-8.65 61.53,-7.79 58.92,-7.46 C56.31,-7.13 53.82,-6.97 51.44,-6.97 C47.59,-6.97 44.29,-7.41 41.55,-8.28 C38.8,-9.16 36.52,-10.73 34.71,-13 C32.89,-15.26 31.99,-17.93 31.99,-20.98 C31.99,-22.97 32.36,-24.86 33.09,-26.68 C33.72,-28.15 34.79,-29.62 36.32,-31.1 C37.85,-32.57 39.75,-33.93 42.02,-35.17 C44.29,-36.42 47.38,-37.66 51.29,-38.91 C53.1,-39.53 56.18,-40.44 60.51,-41.63 C64.85,-42.82 67.77,-43.65 69.27,-44.14 C70.77,-44.62 72.15,-45.13 73.39,-45.67 C74.64,-46.2 75.76,-46.78 76.75,-47.41 C77.75,-48.03 79.23,-49.11 81.22,-50.64 C81.22,-50.64 79.93,-23.19 79.93,-23.19 C79.93,-23.19 78.12,0 78.12,0 C81.47,-0.11 84.05,-0.17 85.86,-0.17 C87.79,-0.17 90.28,-0.11 93.35,0 C93.35,-6.12 93.5,-13.08 93.81,-20.9 C94.12,-28.72 94.57,-37.23 95.16,-46.43 C95.75,-55.63 96.05,-62.19 96.05,-66.1 C96.05,-69.21 95.57,-72.13 94.6,-74.85 C93.64,-77.57 91.69,-79.98 88.74,-82.07 C85.8,-84.17 82.1,-85.68 77.65,-86.62 C73.21,-87.55 68.44,-88.02 63.34,-88.02 C58.58,-88.02 53.7,-87.69 48.68,-87.04 C43.67,-86.39 37.77,-85.19 30.97,-83.43 C30.4,-78.56 29.86,-74.88 29.35,-72.39 C33.55,-74.03 37.04,-75.26 39.85,-76.08z "/><path id="_R_G_L_4_G_D_1_P_0" fill="#ebebeb" fill-opacity="1" fill-rule="nonzero" d=" M-46.98 -104.84 C-46.98,-104.84 -31.2,-59.9 -31.2,-59.9 C-31.2,-59.9 -69.39,-59.9 -69.39,-59.9 C-69.39,-59.9 -46.98,-104.84 -46.98,-104.84z  M-106.28 -0.17 C-106.28,-0.17 -97.57,0 -97.57,0 C-97.57,0 -86.7,-23.28 -86.7,-23.28 C-86.7,-23.28 -74.4,-48.68 -74.4,-48.68 C-74.4,-48.68 -27.98,-48.68 -27.98,-48.68 C-25.54,-42.28 -22.56,-33.93 -19.02,-23.62 C-15.49,-13.31 -12.96,-5.44 -11.43,0 C-6.9,-0.11 -3.87,-0.17 -2.34,-0.17 C-2.34,-0.17 5.74,0 5.74,0 C5.74,0 -21.44,-74.34 -21.44,-74.34 C-21.44,-74.34 -36.14,-115.97 -36.14,-115.97 C-39.71,-115.91 -43.02,-115.89 -46.08,-115.89 C-46.08,-115.89 -55.95,-115.97 -55.95,-115.97 C-55.95,-115.97 -60.54,-106.29 -60.54,-106.29 C-60.54,-106.29 -99.96,-29.23 -99.96,-29.23 C-99.96,-29.23 -115.42,0 -115.42,0 C-110.75,-0.11 -107.7,-0.17 -106.28,-0.17z "/></g></g><g id="_R_G_L_3_G_M"><g id="_R_G_L_3_G" transform=" translate(200, 150) translate(-0.51, 58.113)"><path id="_R_G_L_3_G_D_0_P_0" fill="#ebebeb" fill-opacity="1" fill-rule="nonzero" d=" M88.75 -72.57 C95.8,-65.38 99.32,-56.44 99.32,-45.75 C99.32,-38.73 97.75,-32.43 94.61,-26.83 C91.47,-21.22 86.99,-16.78 81.16,-13.5 C75.33,-10.22 69.16,-8.58 62.66,-8.58 C56.21,-8.58 50.17,-10.23 44.54,-13.55 C38.91,-16.85 34.43,-21.48 31.09,-27.42 C27.75,-33.36 26.08,-39.58 26.08,-46.09 C26.08,-52.65 27.74,-58.88 31.05,-64.76 C34.36,-70.64 38.81,-75.21 44.41,-78.47 C50.01,-81.72 56.13,-83.35 62.74,-83.35 C73.04,-83.35 81.71,-79.75 88.75,-72.57z  M98.56 -92.44 C98.56,-92.44 98.56,-75.44 98.56,-75.44 C93.91,-81.9 88.52,-86.74 82.37,-89.97 C76.22,-93.2 69.36,-94.82 61.77,-94.82 C48.63,-94.82 37.38,-90.09 28.04,-80.63 C18.69,-71.17 14.02,-59.78 14.02,-46.47 C14.02,-32.88 18.65,-21.34 27.91,-11.85 C37.17,-2.36 48.34,2.38 61.43,2.38 C68.79,2.38 75.57,0.85 81.78,-2.21 C87.98,-5.27 93.57,-9.83 98.56,-15.89 C98.56,-15.89 98.56,0 98.56,0 C98.56,0 110.28,0 110.28,0 C110.28,0 110.28,-92.44 110.28,-92.44 C110.28,-92.44 98.56,-92.44 98.56,-92.44z "/><path id="_R_G_L_3_G_D_1_P_0" fill="#ebebeb" fill-opacity="1" fill-rule="nonzero" d=" M-42.46 -53.19 C-42.46,-53.19 -85.18,-53.19 -85.18,-53.19 C-85.18,-53.19 -63.77,-98.42 -63.77,-98.42 C-63.77,-98.42 -42.46,-53.19 -42.46,-53.19z  M-65.25 -124.98 C-65.25,-124.98 -124.3,0 -124.3,0 C-124.3,0 -110.36,0 -110.36,0 C-110.36,0 -90.89,-41.12 -90.89,-41.12 C-90.89,-41.12 -37.05,-41.12 -37.05,-41.12 C-37.05,-41.12 -17.4,0 -17.4,0 C-17.4,0 -3.91,0 -3.91,0 C-3.91,0 -62.19,-124.98 -62.19,-124.98 C-62.19,-124.98 -65.25,-124.98 -65.25,-124.98z "/></g></g><g id="_R_G_L_2_G_M"><g id="_R_G_L_2_G" transform=" translate(200, 150) translate(-0.51, 58.113)"><path id="_R_G_L_2_G_D_0_P_0" fill="#ebebeb" fill-opacity="1" fill-rule="nonzero" d=" M42.54 -15.66 C40.31,-16.7 38.61,-18.11 37.45,-19.88 C36.29,-21.65 35.71,-23.69 35.71,-26.01 C35.71,-28.04 36.16,-29.81 37.06,-31.32 C37.96,-32.83 39.25,-34.16 40.93,-35.32 C42.62,-36.48 44.68,-37.5 47.11,-38.37 C49.6,-39.18 52.47,-39.92 55.72,-40.59 C58.97,-41.25 62.86,-41.96 67.38,-42.72 C71.91,-43.47 77.33,-44.34 83.65,-45.33 C83.65,-45.33 77.21,-47.24 77.21,-47.24 C77.21,-45.09 77.14,-42.3 77,-38.85 C76.85,-35.39 76.23,-32.33 75.13,-29.67 C74.43,-27.52 73.08,-25.23 71.08,-22.79 C69.08,-20.36 66.4,-18.3 63.03,-16.62 C59.67,-14.93 55.61,-14.09 50.85,-14.09 C47.55,-14.09 44.78,-14.62 42.54,-15.66z  M67.86 -2.13 C73.52,-5.29 78.46,-10.27 82.69,-17.05 C82.69,-17.05 79.65,-20.36 79.65,-20.36 C79.65,-20.36 79.65,0 79.65,0 C79.65,0 98.01,0 98.01,0 C98.01,0 98.01,-57.68 98.01,-57.68 C98.01,-61.74 97.83,-65.5 97.48,-68.95 C97.14,-72.4 96.12,-75.78 94.44,-79.08 C91.36,-85.29 86.65,-89.75 80.3,-92.48 C73.95,-95.21 66.6,-96.57 58.25,-96.57 C47.17,-96.57 38.37,-94.16 31.84,-89.35 C25.32,-84.53 20.89,-78.15 18.58,-70.21 C18.58,-70.21 37.72,-64.21 37.72,-64.21 C39.28,-69.02 42.04,-72.41 45.98,-74.39 C49.92,-76.36 54.01,-77.34 58.25,-77.34 C65.26,-77.34 70.25,-75.81 73.21,-72.73 C76.17,-69.66 77.62,-64.87 77.56,-58.38 C77.56,-58.38 85.04,-62.64 85.04,-62.64 C78.55,-61.65 72.33,-60.74 66.38,-59.9 C60.44,-59.06 54.93,-58.14 49.85,-57.16 C44.78,-56.17 40.35,-55.07 36.58,-53.85 C31.6,-52.17 27.54,-50.01 24.4,-47.37 C21.27,-44.73 18.95,-41.6 17.44,-37.98 C15.93,-34.35 15.18,-30.28 15.18,-25.75 C15.18,-20.59 16.39,-15.86 18.79,-11.57 C21.2,-7.28 24.75,-3.84 29.45,-1.26 C34.15,1.32 39.89,2.61 46.68,2.61 C55.14,2.61 62.21,1.03 67.86,-2.13z "/><path id="_R_G_L_2_G_D_1_P_0" fill="#ebebeb" fill-opacity="1" fill-rule="nonzero" d=" M-17.18 -27.14 C-17.18,-27.14 -17.18,-46.72 -17.18,-46.72 C-17.18,-46.72 -82.95,-46.72 -82.95,-46.72 C-82.95,-46.72 -82.95,-27.14 -82.95,-27.14 C-82.95,-27.14 -17.18,-27.14 -17.18,-27.14z  M-83.39 0 C-83.39,0 -47.98,-112.4 -47.98,-112.4 C-47.98,-112.4 -52.68,-112.4 -52.68,-112.4 C-52.68,-112.4 -16.83,0 -16.83,0 C-16.83,0 4.74,0 4.74,0 C4.74,0 -34.76,-125.28 -34.76,-125.28 C-34.76,-125.28 -65.47,-125.28 -65.47,-125.28 C-65.47,-125.28 -104.96,0 -104.96,0 C-104.96,0 -83.39,0 -83.39,0z "/></g></g><g id="_R_G_L_1_G_M"><g id="_R_G_L_1_G" transform=" translate(200, 150) translate(-0.51, 58.113)"><path id="_R_G_L_1_G_D_0_P_0" fill="#ebebeb" fill-opacity="1" fill-rule="nonzero" d=" M46.37 -14.96 C42.66,-17.17 39.7,-20.18 37.5,-24.01 C35.29,-27.84 34.19,-32.07 34.19,-36.71 C34.19,-41.7 35.26,-46.05 37.41,-49.76 C39.56,-53.47 42.43,-56.38 46.02,-58.46 C49.62,-60.55 53.56,-61.6 57.86,-61.6 C61.8,-61.6 65.39,-60.87 68.64,-59.42 C71.89,-57.97 74.67,-55.94 77,-53.33 C79.31,-50.72 80.94,-47.68 81.87,-44.2 C81.87,-44.2 81.87,-30.1 81.87,-30.1 C81.05,-26.27 79.58,-22.99 77.43,-20.27 C75.28,-17.54 72.58,-15.43 69.34,-13.92 C66.09,-12.41 62.44,-11.66 58.38,-11.66 C54.08,-11.66 50.08,-12.76 46.37,-14.96z  M65.34 -0.09 C68.7,-1.3 71.69,-2.84 74.3,-4.7 C76.91,-6.55 79,-8.38 80.56,-10.18 C82.13,-11.98 83.14,-13.45 83.61,-14.62 C83.61,-14.62 81.87,-18.79 81.87,-18.79 C81.87,-18.79 81.87,0 81.87,0 C81.87,0 98.05,0 98.05,0 C98.05,0 98.05,-72.04 98.05,-72.04 C98.05,-72.04 83.09,-72.04 83.09,-72.04 C83.09,-72.04 81.52,-56.72 81.52,-56.72 C81.52,-56.72 82.56,-59.51 82.56,-59.51 C80.13,-63.68 76.59,-67.31 71.95,-70.38 C67.31,-73.45 61.62,-74.99 54.9,-74.99 C48.17,-74.99 41.99,-73.43 36.37,-70.3 C30.74,-67.16 26.24,-62.67 22.88,-56.81 C19.52,-50.95 17.84,-44.02 17.84,-36.02 C17.84,-27.9 19.43,-21.02 22.62,-15.4 C25.81,-9.77 30.16,-5.51 35.67,-2.61 C41.18,0.29 47.3,1.74 54.03,1.74 C58.2,1.74 61.97,1.13 65.34,-0.09z "/><path id="_R_G_L_1_G_D_1_P_0" fill="#ebebeb" fill-opacity="1" fill-rule="nonzero" d=" M-79.08 -33.06 C-79.08,-33.06 -21.84,-33.06 -21.84,-33.06 C-21.84,-33.06 -27.4,-47.68 -27.4,-47.68 C-27.4,-47.68 -74.21,-47.68 -74.21,-47.68 C-74.21,-47.68 -79.08,-33.06 -79.08,-33.06z  M-89.87 0 C-89.87,0 -43.93,-112.4 -43.93,-112.4 C-43.93,-112.4 -55.94,-104.57 -55.94,-104.57 C-55.94,-104.57 -14.88,0 -14.88,0 C-14.88,0 4.44,0 4.44,0 C4.44,0 -50.37,-131.02 -50.37,-131.02 C-50.37,-131.02 -51.42,-131.02 -51.42,-131.02 C-51.42,-131.02 -106.4,0 -106.4,0 C-106.4,0 -89.87,0 -89.87,0z "/></g></g><g id="_R_G_L_0_G_M"><g id="_R_G_L_0_G" transform=" translate(183, 144) scale(1.14, 1.14) translate(-0.51, 58.113)"><path id="_R_G_L_0_G_D_0_P_0" fill="#ebebeb" fill-opacity="1" fill-rule="nonzero" d=" M36.8 -18.1 C38.42,-22.85 39.99,-26.5 41.5,-29.06 C44.75,-34.51 47.68,-39.06 50.29,-42.72 C52.9,-46.37 55.25,-49.15 57.33,-51.07 C59.42,-52.98 61.22,-53.94 62.73,-53.94 C63.65,-53.94 64.58,-53.53 65.51,-52.72 C66.44,-51.91 67.48,-50.17 68.64,-47.5 C68.64,-47.5 64.82,-41.24 64.82,-41.24 C62.38,-37.76 59.88,-34.91 57.33,-32.71 C54.78,-30.51 51.53,-27.72 47.59,-24.36 C44.69,-22.04 42.37,-20.38 40.63,-19.4 C38.89,-18.41 37.61,-17.98 36.8,-18.1z  M41.93 -3.57 C47.79,-6.06 54.84,-11.48 63.08,-19.84 C63.77,-20.53 64.49,-21.31 65.25,-22.18 C66,-23.05 66.61,-23.78 67.08,-24.36 C67.19,-23.78 67.63,-22.53 68.38,-20.62 C69.14,-18.7 69.74,-17.4 70.21,-16.7 C72.99,-11.37 76.13,-8.06 79.61,-6.79 C83.09,-5.51 86.74,-5.1 90.57,-5.57 C91.73,-5.8 92.8,-6.52 93.79,-7.74 C94.77,-8.96 95.27,-10.96 95.27,-13.75 C95.27,-15.02 94.86,-15.95 94.05,-16.53 C93.23,-17.11 92.36,-17.46 91.44,-17.57 C89.81,-17.81 88.51,-18.27 87.52,-18.97 C86.54,-19.66 85.75,-20.65 85.17,-21.92 C83.78,-24.47 82.71,-27.49 81.95,-30.97 C81.2,-34.45 81.58,-38.51 83.09,-43.15 C83.09,-43.15 86.04,-51.85 86.04,-51.85 C86.04,-51.85 79.61,-57.59 79.61,-57.59 C78.44,-58.64 77.08,-59.8 75.52,-61.07 C73.95,-62.35 72.56,-63.51 71.34,-64.55 C70.12,-65.6 69.34,-66.29 68.99,-66.64 C67.13,-68.15 64.9,-68.96 62.29,-69.08 C59.68,-69.19 57.16,-68.44 54.72,-66.82 C53.56,-66.12 52.08,-65.02 50.29,-63.51 C48.49,-62 46.72,-60.4 44.98,-58.72 C43.24,-57.04 41.76,-55.51 40.54,-54.11 C39.32,-52.72 38.6,-51.79 38.37,-51.33 C38.37,-51.33 36.98,-48.55 36.98,-48.55 C36.51,-48.55 36.1,-48.34 35.76,-47.94 C35.41,-47.53 35.24,-47.09 35.24,-46.63 C34.77,-46.17 34.07,-45.18 33.15,-43.67 C32.22,-42.16 31.29,-40.95 30.36,-40.02 C28.16,-35.96 26.13,-31.96 24.27,-28.01 C22.42,-24.07 21.02,-20.73 20.1,-18.01 C19.17,-15.28 18.99,-13.57 19.58,-12.88 C20.04,-12.41 20.53,-11.68 21.05,-10.7 C21.58,-9.71 21.84,-8.99 21.84,-8.53 C21.84,-8.06 22.62,-7.36 24.19,-6.44 C25.75,-5.51 26.77,-4.58 27.23,-3.65 C31.17,-1.1 36.07,-1.07 41.93,-3.57z "/><path id="_R_G_L_0_G_D_1_P_0" fill="#ebebeb" fill-opacity="1" fill-rule="nonzero" d=" M-30.45 -56.81 C-29.7,-58.38 -28.77,-60.12 -27.67,-62.03 C-26.56,-63.94 -25.52,-65.68 -24.53,-67.25 C-23.55,-68.82 -22.94,-69.71 -22.71,-69.95 C-22.13,-69.95 -21.34,-70.58 -20.36,-71.86 C-19.37,-73.14 -18.3,-74.88 -17.14,-77.08 C-14.7,-81.84 -12.24,-86.27 -9.74,-90.39 C-7.25,-94.51 -5.05,-97.82 -3.13,-100.31 C-1.22,-102.8 0.09,-104.05 0.78,-104.05 C1.25,-100.46 1.42,-97.55 1.31,-95.35 C1.19,-93.61 0.96,-91.2 0.61,-88.13 C0.26,-85.06 -0.15,-81.75 -0.61,-78.21 C-1.07,-74.67 -1.54,-71.28 -2,-68.03 C-2.47,-64.79 -2.87,-62.06 -3.22,-59.86 C-3.57,-57.65 -3.8,-56.43 -3.91,-56.2 C-4.73,-56.43 -5.37,-56.84 -5.83,-57.42 C-6.52,-57.77 -7.45,-57.91 -8.61,-57.85 C-9.77,-57.79 -11.25,-57.59 -13.05,-57.25 C-14.85,-56.9 -17.08,-56.38 -19.75,-55.68 C-21.14,-55.68 -22.74,-55.53 -24.53,-55.24 C-26.33,-54.95 -28.51,-54.58 -31.06,-54.11 C-31.41,-54.34 -31.21,-55.24 -30.45,-56.81z  M-66.56 10.44 C-66.56,10.44 -61.86,3.83 -61.86,3.83 C-60.23,1.39 -58.64,-1.48 -57.07,-4.78 C-55.51,-8.09 -54.23,-11.11 -53.24,-13.83 C-52.26,-16.56 -51.76,-18.27 -51.76,-18.97 C-50.72,-20.59 -49.79,-21.69 -48.98,-22.27 C-48.98,-22.85 -48.37,-24.04 -47.15,-25.84 C-45.94,-27.64 -45.1,-29.35 -44.63,-30.97 C-43.36,-33.17 -41.99,-34.97 -40.54,-36.37 C-39.09,-37.76 -37.84,-38.45 -36.8,-38.45 C-35.76,-38.8 -33.9,-39.18 -31.23,-39.58 C-28.57,-39.99 -25.64,-40.39 -22.45,-40.8 C-19.26,-41.21 -16.3,-41.53 -13.57,-41.76 C-10.85,-41.99 -8.96,-42.11 -7.92,-42.11 C-7.92,-42.11 -5.65,-42.28 -5.65,-42.28 C-5.65,-42.28 -6.52,-15.66 -6.52,-15.66 C-6.76,-10.21 -6.93,-6.46 -7.05,-4.44 C-7.16,-2.41 -7.16,-1.28 -7.05,-1.04 C-6.93,-0.81 -6.7,-0.52 -6.35,-0.17 C-6.12,0.87 -4.9,1.74 -2.7,2.44 C-0.5,3.13 1.77,3.51 4.09,3.57 C6.41,3.62 7.92,3.31 8.61,2.61 C8.61,2.03 8.67,1.27 8.79,0.35 C8.9,-0.58 8.9,-1.57 8.79,-2.61 C8.44,-7.48 8.44,-13.19 8.79,-19.75 C9.14,-26.3 9.63,-33.12 10.27,-40.19 C10.9,-47.27 11.57,-54.05 12.27,-60.55 C12.96,-67.05 13.49,-72.67 13.83,-77.43 C14.3,-82.3 14.7,-86.88 15.05,-91.18 C15.4,-95.47 15.63,-99.12 15.75,-102.14 C15.86,-105.15 15.63,-107.12 15.05,-108.05 C14.36,-109.79 13.02,-111.65 11.05,-113.62 C9.07,-115.59 6.81,-117.25 4.26,-118.58 C1.71,-119.91 -0.84,-120.58 -3.39,-120.58 C-4.44,-120.58 -5.65,-120.12 -7.05,-119.19 C-8.44,-118.26 -9.77,-116.98 -11.05,-115.36 C-14.18,-111.19 -17.34,-106.54 -20.53,-101.44 C-23.72,-96.34 -26.48,-91.75 -28.8,-87.7 C-32.51,-81.43 -35.47,-76.36 -37.67,-72.47 C-39.88,-68.58 -41.65,-65.36 -42.98,-62.81 C-44.31,-60.26 -45.5,-57.77 -46.54,-55.33 C-47.71,-53.24 -49.33,-51.44 -51.42,-49.94 C-53.5,-48.43 -54.84,-47.38 -55.42,-46.81 C-56.46,-46.34 -57.22,-45.79 -57.68,-45.15 C-58.15,-44.51 -58.26,-43.67 -58.03,-42.63 C-58.03,-42.28 -58.09,-41.47 -58.2,-40.19 C-58.32,-38.92 -58.87,-36.8 -59.86,-33.84 C-60.84,-30.89 -62.73,-26.8 -65.51,-21.58 C-69.22,-14.27 -71.95,-8.87 -73.69,-5.39 C-75.43,-1.91 -76.21,0.52 -76.04,1.91 C-75.86,3.31 -74.73,4.58 -72.64,5.74 C-72.64,5.74 -66.56,10.44 -66.56,10.44z "/></g></g></g><g id="time_group"/></svg>